<svg xmlns="http://www.w3.org/2000/svg" xmlns:xlink="http://www.w3.org/1999/xlink" id="Layer_1" x="0px" y="0px" viewBox="0 0 400 400" style="enable-background:new 0 0 400 400;" xml:space="preserve"><style type="text/css">	.st0{fill:#00B2F5;}	.st1{fill:#FFFFFF;}</style><path id="bg" class="st0" d="M399.9,199.8c0,110.5-89.5,200-200,200s-200-89.5-200-200s89.5-200,200-200S399.9,89.3,399.9,199.8z"></path><path id="_x37_" class="st1" d="M275.6,114c2.2,2.3,3.3,5.2,3.3,8.8c0,3.4-1,7-3.1,10.8l-92.9,171.6c-3,5.3-7.2,8-12.5,8 c-3.6,0-6.9-1.3-9.8-3.8c-2.9-2.6-4.4-5.7-4.4-9.5c0-2.3,0.8-4.9,2.3-8L244,134.8h-92.3c-4.5,0-8-1-10.2-3.1c-2.3-2.1-3.4-5-3.4-8.8 c0-8.1,4.5-12.2,13.6-12.2h114.5C270.3,110.6,273.4,111.8,275.6,114z"></path></svg>