<svg xmlns="http://www.w3.org/2000/svg" xmlns:xlink="http://www.w3.org/1999/xlink" id="Layer_1" x="0px" y="0px" viewBox="0 0 373 190" style="enable-background:new 0 0 373 190;" xml:space="preserve"><style type="text/css">	.st0{fill:#222222;}	.st1{fill:#21BDA1;}</style><g>	<path class="st0" d="M4.3,76.3l2.5-5.6c2.4,1.9,4.9,3.3,7.4,4.2c2.5,0.8,5.4,1.3,8.5,1.3c3.4,0,5.9-0.6,7.7-1.7  c1.8-1.2,2.7-2.8,2.7-5c0-1.8-0.6-3.2-1.8-4.3c-1.2-1.1-3.1-1.9-5.9-2.5l-7.7-1.8c-3.9-0.9-6.8-2.4-8.9-4.5  c-2.1-2.1-3.1-4.7-3.1-7.8c0-4,1.6-7.3,4.8-9.8c3.2-2.5,7.4-3.7,12.7-3.7c3.2,0,6.2,0.5,9.1,1.5c2.9,1,5.3,2.5,7.2,4.4l-2.5,5.5  c-4.2-3.5-8.7-5.3-13.7-5.3c-3.2,0-5.6,0.6-7.4,1.8s-2.7,2.9-2.7,5.1c0,1.8,0.5,3.3,1.6,4.3c1.1,1.1,2.8,1.9,5.3,2.5l7.7,1.9  c4.2,1,7.4,2.5,9.4,4.5c2.1,2,3.1,4.7,3.1,7.9c0,4-1.6,7.2-4.8,9.5c-3.2,2.4-7.6,3.5-13.1,3.5C14.9,82.2,8.8,80.2,4.3,76.3z"></path>	<path class="st0" d="M90,59.9H56.8c0.2,5.3,1.7,9.3,4.3,12c2.6,2.7,6.3,4.1,11.1,4.1c5.3,0,10.1-1.8,14.6-5.4l2.5,5.5  c-2,1.9-4.5,3.3-7.7,4.4c-3.1,1.1-6.3,1.6-9.5,1.6c-7.1,0-12.7-2.1-16.8-6.3c-4.1-4.2-6.1-9.9-6.1-17.3c0-4.7,0.9-8.8,2.7-12.4  c1.8-3.6,4.3-6.4,7.6-8.4c3.3-2,7-3,11.2-3c6,0,10.8,2,14.2,5.9c3.4,4,5.1,9.4,5.1,16.3V59.9z M61.2,44.5c-2.4,2.5-3.8,6-4.2,10.5  h26.4c-0.1-4.6-1.3-8.1-3.5-10.6c-2.2-2.5-5.2-3.7-9.1-3.7C66.8,40.8,63.6,42,61.2,44.5z"></path>	<path class="st0" d="M133.1,36.1h7.6l-19.6,45.4H114L94.5,36.1h8l15.2,37.2L133.1,36.1z"></path>	<path class="st0" d="M186.1,59.9h-33.2c0.2,5.3,1.7,9.3,4.3,12c2.6,2.7,6.3,4.1,11.1,4.1c5.3,0,10.1-1.8,14.6-5.4l2.5,5.5  c-2,1.9-4.5,3.3-7.7,4.4c-3.1,1.1-6.3,1.6-9.5,1.6c-7.1,0-12.7-2.1-16.8-6.3c-4.1-4.2-6.1-9.9-6.1-17.3c0-4.7,0.9-8.8,2.7-12.4  c1.8-3.6,4.3-6.4,7.6-8.4c3.3-2,7-3,11.2-3c6,0,10.8,2,14.2,5.9c3.4,4,5.1,9.4,5.1,16.3V59.9z M157.3,44.5c-2.4,2.5-3.8,6-4.2,10.5  h26.4c-0.1-4.6-1.3-8.1-3.5-10.6c-2.2-2.5-5.2-3.7-9.1-3.7C162.9,40.8,159.7,42,157.3,44.5z"></path>	<path class="st0" d="M236.4,52.9v28.6h-7.6V53.4c0-4.2-0.8-7.3-2.5-9.2c-1.6-1.9-4.3-2.9-7.9-2.9c-4.2,0-7.5,1.3-10,3.8  c-2.5,2.6-3.7,6-3.7,10.4v26h-7.6V36h7.5v7.5c1.5-2.8,3.6-4.9,6.3-6.4c2.7-1.5,5.7-2.2,9.1-2.2C230.9,34.9,236.4,40.9,236.4,52.9z"></path></g><g>	<path class="st1" d="M45.8,137.9H14.7c0.4,4.2,1.6,7.4,3.8,9.4c2.2,2.1,5.3,3.1,9.3,3.1c5,0,9.6-1.6,13.8-4.9l3.4,8  c-2.1,1.7-4.8,3.1-8,4.2c-3.2,1.1-6.4,1.6-9.7,1.6c-7.5,0-13.4-2.1-17.7-6.3c-4.3-4.2-6.5-10-6.5-17.4c0-4.7,0.9-8.8,2.8-12.4  c1.9-3.6,4.5-6.4,7.9-8.4c3.4-2,7.2-3,11.5-3c6.3,0,11.2,2,14.9,6.1c3.6,4,5.5,9.6,5.5,16.7V137.9z M18.2,123.1  c-1.9,2-3.1,4.9-3.5,8.6h21.1c-0.1-3.8-1.1-6.7-2.8-8.6c-1.7-2-4.2-2.9-7.3-2.9C22.6,120.1,20.1,121.1,18.2,123.1z"></path>	<path class="st0" d="M62.1,156.5c-3.5-1.9-6.2-4.7-8.1-8.2c-1.9-3.5-2.8-7.7-2.8-12.4c0-4.7,1-8.9,2.9-12.6c2-3.6,4.7-6.5,8.4-8.4  c3.6-2,7.8-3,12.5-3c3.2,0,6.4,0.5,9.5,1.5c3.1,1,5.6,2.4,7.4,4.2l-3.4,8.2c-1.9-1.6-4-2.7-6.1-3.5c-2.1-0.8-4.3-1.2-6.4-1.2  c-4,0-7.2,1.3-9.4,3.8c-2.2,2.5-3.4,6.1-3.4,10.9c0,4.7,1.1,8.3,3.4,10.8c2.2,2.5,5.4,3.8,9.4,3.8c2.1,0,4.2-0.4,6.4-1.2  c2.1-0.8,4.2-2,6.1-3.5l3.4,8.1c-2,1.8-4.5,3.2-7.7,4.2c-3.1,1-6.3,1.5-9.7,1.5C69.8,159.4,65.6,158.4,62.1,156.5z"></path>	<path class="st0" d="M106,156.5c-3.5-1.9-6.2-4.7-8.2-8.3c-1.9-3.6-2.9-7.8-2.9-12.6c0-4.8,1-9,2.9-12.6c1.9-3.6,4.7-6.3,8.2-8.3  c3.5-1.9,7.6-2.9,12.3-2.9c4.7,0,8.8,1,12.3,2.9c3.5,1.9,6.2,4.7,8.1,8.3c1.9,3.6,2.8,7.8,2.8,12.6c0,4.8-0.9,9-2.8,12.6  c-1.9,3.6-4.6,6.4-8.1,8.3c-3.5,1.9-7.6,2.9-12.3,2.9C113.6,159.4,109.5,158.4,106,156.5z M126.8,146.6c2-2.5,3-6.2,3-11  c0-4.8-1-8.4-3-11c-2-2.5-4.9-3.8-8.6-3.8c-3.7,0-6.6,1.3-8.6,3.8c-2,2.5-3,6.2-3,11c0,4.9,1,8.5,3,11c2,2.5,4.9,3.7,8.6,3.7  C121.9,150.4,124.8,149.1,126.8,146.6z"></path>	<path class="st0" d="M191.1,113v45.6h-11.4v-7c-1.4,2.5-3.4,4.4-5.8,5.7c-2.4,1.3-5.2,2-8.2,2c-11.2,0-16.8-6.3-16.8-18.9V113h11.7  v27.6c0,3.2,0.7,5.6,2,7.2s3.4,2.3,6.2,2.3c3.2,0,5.8-1.1,7.8-3.2c2-2.1,2.9-5,2.9-8.5V113H191.1z"></path>	<path class="st0" d="M231.4,121.6l-6.8,0.7c-7.7,0.8-11.6,4.7-11.6,11.8v24.6h-11.7V113h11.1v8c2.4-5.5,7.2-8.5,14.7-9l3.5-0.3  L231.4,121.6z"></path>	<path class="st0" d="M242.5,157.9c-3.4-1-6.3-2.4-8.6-4.3l3.3-8.1c4.9,3.5,10.4,5.3,16.7,5.3c2.7,0,4.7-0.4,6.1-1.3  c1.4-0.9,2.1-2.1,2.1-3.7c0-1.4-0.5-2.4-1.4-3.2s-2.7-1.4-5.2-2.1l-7.5-1.7c-4.2-0.9-7.4-2.5-9.4-4.6c-2.1-2.1-3.1-4.9-3.1-8.2  c0-2.8,0.8-5.3,2.4-7.4c1.6-2.1,3.8-3.8,6.6-5c2.8-1.2,6.1-1.8,9.8-1.8c3.2,0,6.4,0.5,9.4,1.5c3,1,5.7,2.4,8,4.2l-3.3,7.9  c-4.7-3.4-9.5-5.1-14.2-5.1c-2.6,0-4.5,0.5-6,1.4c-1.4,0.9-2.1,2.2-2.1,3.9c0,1.2,0.5,2.3,1.4,3.1c0.9,0.8,2.3,1.4,4.3,1.9l7.7,1.8  c4.5,1,7.9,2.6,10,4.7c2.1,2.1,3.2,5,3.2,8.4c0,4.2-1.7,7.6-5.1,10.1c-3.4,2.5-8.1,3.7-13.9,3.7  C249.6,159.4,245.9,158.9,242.5,157.9z"></path>	<path class="st0" d="M320.3,137.9h-31.1c0.4,4.2,1.6,7.4,3.8,9.4c2.2,2.1,5.3,3.1,9.3,3.1c5,0,9.6-1.6,13.8-4.9l3.4,8  c-2.1,1.7-4.8,3.1-8,4.2s-6.4,1.6-9.7,1.6c-7.5,0-13.4-2.1-17.7-6.3c-4.3-4.2-6.5-10-6.5-17.4c0-4.7,0.9-8.8,2.8-12.4  c1.9-3.6,4.5-6.4,7.9-8.4c3.4-2,7.2-3,11.5-3c6.3,0,11.2,2,14.9,6.1c3.6,4,5.5,9.6,5.5,16.7V137.9z M292.8,123.1  c-1.9,2-3.1,4.9-3.5,8.6h21.1c-0.1-3.8-1.1-6.7-2.8-8.6c-1.7-2-4.2-2.9-7.3-2.9C297.2,120.1,294.7,121.1,292.8,123.1z"></path>	<path class="st0" d="M333.8,157.9c-3.4-1-6.3-2.4-8.6-4.3l3.3-8.1c4.9,3.5,10.4,5.3,16.7,5.3c2.7,0,4.7-0.4,6.1-1.3  c1.4-0.9,2.1-2.1,2.1-3.7c0-1.4-0.5-2.4-1.4-3.2s-2.7-1.4-5.2-2.1l-7.5-1.7c-4.2-0.9-7.4-2.5-9.4-4.6c-2.1-2.1-3.1-4.9-3.1-8.2  c0-2.8,0.8-5.3,2.4-7.4c1.6-2.1,3.8-3.8,6.6-5c2.8-1.2,6.1-1.8,9.8-1.8c3.2,0,6.4,0.5,9.4,1.5c3,1,5.7,2.4,8,4.2l-3.3,7.9  c-4.7-3.4-9.5-5.1-14.2-5.1c-2.6,0-4.5,0.5-6,1.4c-1.4,0.9-2.1,2.2-2.1,3.9c0,1.2,0.5,2.3,1.4,3.1c0.9,0.8,2.3,1.4,4.3,1.9l7.7,1.8  c4.5,1,7.9,2.6,10,4.7c2.1,2.1,3.2,5,3.2,8.4c0,4.2-1.7,7.6-5.1,10.1c-3.4,2.5-8.1,3.7-13.9,3.7  C340.9,159.4,337.2,158.9,333.8,157.9z"></path></g><path class="st1" d="M264.4,42.5c-0.8,0.8-0.9,1.5-0.9,2c0,0.6,0.2,1.1,0.6,1.5l0,0c0.4,0.4,1,0.7,1.7,0.8l13,2.1 c0.3,0,0.6,0.1,0.9,0.1l-8.5,20.9c-0.9,2.1-0.2,3.3,0.3,3.8c0.5,0.5,1.6,1.2,3.8,0.3l20.8-8.5c0,0.3,0,0.7,0,1l2,13 c0.1,0.7,0.4,1.3,0.8,1.7c0.8,0.8,2.2,1,3.5-0.3L320.3,63c1.3-1.3,2-3.7,1.6-5.4l-1.1-4.9c-0.1-0.4,0.1-0.6,0.3-0.9 c7.3-7.8,13.5-16.9,16.9-25c3.8-8.9,4-15.8,0.4-19.4l0,0c-7.7-7.7-29.6,2.3-45.3,16.6c0,0-0.1,0.1-0.1,0.1c-0.1,0.1-0.2,0.2-0.2,0.2 c0,0,0,0-0.1,0l-0.1,0l-4.7-1.2c-1.8-0.4-4.2,0.2-5.4,1.5L264.4,42.5z M315.2,29.8c-3.2-3.2-3.2-8.4,0-11.6c3.2-3.2,8.4-3.2,11.6,0 c3.2,3.2,3.2,8.4,0,11.6C323.6,33,318.4,33,315.2,29.8z"></path></svg>