<svg xmlns="http://www.w3.org/2000/svg" xmlns:xlink="http://www.w3.org/1999/xlink" id="hero" x="0px" y="0px" viewBox="0 0 900 900" style="enable-background:new 0 0 900 900;" xml:space="preserve">
<style type="text/css">
	.st0{fill:#FFFFFF;}
	.st1{fill:url(#mround_00000057135941259242882040000012095884290655671725_);}
</style>
<g>
	<g id="mlogo">
		<path class="st0" d="M350.4,114.3c-1.9-1.9-2.9-4.4-2.9-7.5V53h-16c-3.3,0-5.8-0.7-7.4-2.1c-1.6-1.4-2.4-3.6-2.4-6.5    s0.8-5,2.4-6.4s4.1-2.1,7.4-2.1h53c3.3,0,5.8,0.7,7.4,2.1c1.6,1.4,2.4,3.5,2.4,6.4s-0.8,5-2.4,6.5c-1.6,1.4-4.1,2.1-7.4,2.1h-16    v53.8c0,3.1-1,5.6-2.9,7.5s-4.5,2.8-7.6,2.8S352.3,116.1,350.4,114.3z"></path>
		<path class="st0" d="M479.1,38.2c1.8,1.9,2.8,4.4,2.8,7.5v61.1c0,3.1-0.9,5.6-2.8,7.5c-1.8,1.9-4.3,2.9-7.4,2.9s-5.6-0.9-7.4-2.8    s-2.8-4.4-2.8-7.6V84h-32.6v22.8c0,3.1-0.9,5.6-2.8,7.5c-1.8,1.9-4.3,2.9-7.4,2.9s-5.6-0.9-7.4-2.8s-2.8-4.4-2.8-7.6V45.7    c0-3.1,0.9-5.6,2.8-7.5c1.8-1.9,4.3-2.8,7.4-2.8s5.6,0.9,7.4,2.8c1.8,1.9,2.8,4.4,2.8,7.5v21.6h32.6V45.7c0-3.1,0.9-5.6,2.8-7.5    c1.8-1.9,4.3-2.8,7.4-2.8S477.3,36.3,479.1,38.2z"></path>
		<path class="st0" d="M508.4,114c-1.7-1.7-2.5-4.1-2.5-7.2V45.7c0-3.1,0.8-5.5,2.5-7.2s4-2.5,7.1-2.5h39.2c3.2,0,5.7,0.7,7.4,2.1    s2.5,3.4,2.5,5.9c0,5.5-3.3,8.2-9.8,8.2h-28.7v15.3h26.3c6.6,0,9.8,2.7,9.8,8.1c0,2.6-0.8,4.6-2.5,5.9c-1.7,1.4-4.1,2.1-7.4,2.1    h-26.2v16.7h28.5c6.6,0,9.8,2.7,9.8,8.2c0,2.6-0.8,4.6-2.5,5.9c-1.7,1.4-4.1,2.1-7.4,2.1h-39.2C512.4,116.5,510,115.6,508.4,114z"></path>
		<path class="st0" d="M602.9,278.4c3.7,3.8,5.5,8.5,5.5,14.5c0,5.5-1.8,11.6-5.3,18.2l-194,368.5c-4.7,8.6-11.5,13-20.4,13    c-6.2,0-11.8-2.2-16.6-6.4c-4.9-4.4-7.3-9.6-7.3-16c0-4.4,1.4-8.6,4.1-13l182.2-343.8H349.4c-7,0-12.4-1.8-16.1-5.4    s-5.5-8.4-5.5-14.8c0-6.6,1.9-11.8,5.5-15.4c3.7-3.6,9-5.4,16.1-5.4h237.3C593.9,272.8,599.2,274.7,602.9,278.4z"></path>
		
			<linearGradient id="mround_00000036972524991844822790000008516397401078148535_" gradientUnits="userSpaceOnUse" x1="95.2386" y1="6347.127" x2="804.9467" y2="5937.3774" gradientTransform="matrix(1 0 0 -1 0 6595.3501)">
			<stop offset="6.680000e-02" style="stop-color:#13E3EE"></stop>
			<stop offset="0.9107" style="stop-color:#029CF5"></stop>
		</linearGradient>
		<path id="mround" style="fill:url(#mround_00000036972524991844822790000008516397401078148535_);" d="M629.9,82.7L629.9,82.7    c-2.5-1.3-5.3-2.1-8.3-2.1c-9.4,0-17,7.7-17,17.2c0,5.8,2.9,11,7.3,14.1l-0.1,0.1c0.4,0.2,0.8,0.4,1.2,0.6    c0.8,0.5,1.6,0.9,2.4,1.2c124,61.6,209.3,190.4,209.3,339.2c0,208.8-167.8,378-374.7,378S75.3,661.8,75.3,453    c0-148.9,85.3-277.7,209.4-339.3c6.3-2.5,10.7-8.7,10.7-15.9c0-9.5-7.6-17.2-17-17.2c-2.4,0-4.8,0.5-6.9,1.5V82    C135.3,148.9,41.3,289.9,41.3,453c0,227.7,183,412.4,408.8,412.4S858.9,680.8,858.9,453C858.7,290.4,765.4,149.8,629.9,82.7z"></path>
	</g>
</g>
</svg>