<svg xmlns="http://www.w3.org/2000/svg" xmlns:xlink="http://www.w3.org/1999/xlink" id="Layer_1" x="0px" y="0px" viewBox="0 0 400 77" style="enable-background:new 0 0 400 77;" xml:space="preserve"><style type="text/css">	.st0{fill:#00B2F5;}	.st1{fill:#111111;}</style><path id="icon-wpb" class="st0" d="M46.6,4.7C50.4,7,51,8.3,55.2,13c6.2,6.8,14,7.6,15.3,7.6c3.7,0.2,7.1-0.8,7.1-1.2 c0-0.3-2.5-0.1-6.2-1c-1.2-0.3-5.3-1.3-5.2-1.9c0,0,17.7-5.7,28.2,4.6c6.1,6.1,7.9,17.2,3.6,25.3c-2.6,4.8-11.8,13-21.4,12 c-0.3,0-5.5,18-5.4,17.6c-1.1-0.9-6-5-19.8-4.3c-5.7,0.3-9.6,3.2-14.2,1c-3.6-1.8-4.6-6.7-4.6-6.6c0.1,0,3.7-0.1,9.9-3.3 c4.9-2.5,6.2-4.9,6.1-5.1c0,0-0.4,0.2-1,0.6c-1.4,0.8-5.3,2.6-9.2,3.5C26.9,64.8,8.9,59.7,2.6,43.6C-3.3,29,5.1,16,5.9,14.8 c0.8-1.3,5.3-7,12.1-10.5C25.2,0.7,38.3-0.4,46.6,4.7z"></path><g>	<path class="st1" d="M180,33.2l-10.9,33.6H159l-6.4-20.4l-6.7,20.4h-10.2l-10.9-33.6h9.8l6.8,21.4l7.1-21.4h8.7l6.8,21.6l7.1-21.6  H180z"></path>	<path class="st1" d="M206.9,34.7c2.2,1,4,2.4,5.2,4.3s1.8,4.1,1.8,6.6c0,2.5-0.6,4.7-1.8,6.6c-1.2,1.9-2.9,3.3-5.2,4.3  c-2.2,1-4.9,1.5-7.9,1.5h-5.9v8.8h-9.5V33.2H199C202.1,33.2,204.7,33.7,206.9,34.7z M202.9,49.2c1-0.8,1.5-2.1,1.5-3.6  c0-1.6-0.5-2.8-1.5-3.6c-1-0.9-2.5-1.3-4.4-1.3h-5.3v9.8h5.3C200.4,50.5,201.9,50.1,202.9,49.2z"></path>	<path class="st1" d="M249.1,52.4c1.1,1.4,1.6,3.1,1.6,5.2c0,2.9-1.2,5.2-3.6,6.8c-2.4,1.6-5.8,2.4-10.3,2.4h-18.1V33.2H236  c4.3,0,7.5,0.8,9.8,2.4c2.2,1.6,3.4,3.7,3.4,6.4c0,1.6-0.4,3-1.2,4.3c-0.8,1.3-1.9,2.3-3.3,3C246.5,49.9,248,51,249.1,52.4z   M228.2,40.1v6.5h6.5c3.2,0,4.8-1.1,4.8-3.3c0-2.1-1.6-3.2-4.8-3.2H228.2z M241.1,56.5c0-2.3-1.7-3.4-5-3.4h-8v6.8h8  C239.5,59.9,241.1,58.8,241.1,56.5z"></path>	<path class="st1" d="M276.5,43.3c2.3,2,3.4,5,3.4,9v14.4h-8.5v-3.4c-1.3,2.5-3.9,3.8-7.7,3.8c-2,0-3.8-0.4-5.2-1.1  c-1.5-0.7-2.6-1.7-3.3-2.9c-0.8-1.2-1.1-2.6-1.1-4.1c0-2.5,0.9-4.4,2.8-5.7c1.9-1.4,4.8-2,8.7-2h5.2c-0.2-2.8-2-4.1-5.5-4.1  c-1.2,0-2.5,0.2-3.8,0.6c-1.3,0.4-2.4,1-3.3,1.7l-3.1-6.2c1.4-1,3.2-1.7,5.3-2.2c2.1-0.5,4.1-0.8,6.2-0.8  C270.9,40.3,274.2,41.3,276.5,43.3z M269,60.7c0.8-0.5,1.4-1.3,1.7-2.3v-2.3h-3.9c-2.7,0-4,0.9-4,2.6c0,0.8,0.3,1.4,0.9,1.9  c0.6,0.5,1.4,0.7,2.5,0.7C267.3,61.5,268.2,61.2,269,60.7z"></path>	<path class="st1" d="M297.7,57.7l-2.7,2.7v6.4h-9.1V31.2h9.1v18.7l9.3-9.1h10.8l-10.8,11.1L316,66.8h-11L297.7,57.7z"></path>	<path class="st1" d="M344.3,56.1h-18.9c0.4,1.3,1.1,2.4,2.2,3.1s2.5,1.1,4.1,1.1c1.2,0,2.3-0.2,3.2-0.5c0.9-0.4,1.8-0.9,2.8-1.7  l4.8,5c-2.5,2.8-6.2,4.2-11.1,4.2c-3,0-5.7-0.6-8-1.7s-4.1-2.8-5.3-4.8c-1.3-2-1.9-4.4-1.9-7c0-2.6,0.6-4.9,1.8-6.9  c1.2-2,2.9-3.6,5.1-4.8s4.6-1.7,7.3-1.7c2.6,0,4.9,0.5,7.1,1.6c2.1,1.1,3.8,2.6,5,4.7c1.2,2,1.8,4.4,1.8,7.2  C344.4,53.9,344.4,54.6,344.3,56.1z M327,48c-0.9,0.8-1.5,1.9-1.8,3.3h10.7c-0.3-1.4-0.9-2.5-1.8-3.3c-0.9-0.8-2.1-1.2-3.5-1.2  S328,47.2,327,48z"></path>	<path class="st1" d="M361.2,41.2c1.5-0.6,3.2-0.9,5.1-0.9v8.2c-0.8-0.1-1.5-0.1-2.1-0.1c-2,0-3.5,0.5-4.6,1.6  c-1.1,1.1-1.7,2.7-1.7,4.8v11.9h-9.1v-26h8.7v3.1C358.5,42.7,359.7,41.8,361.2,41.2z"></path>	<path class="st1" d="M398.5,40.8l-11.2,27.1c-1.3,3.2-2.9,5.4-4.8,6.7c-1.9,1.3-4.2,1.9-6.9,1.9c-1.4,0-2.8-0.2-4.1-0.6  c-1.4-0.4-2.5-1-3.4-1.7l3.2-6.4c0.5,0.5,1.1,0.9,1.8,1.1c0.7,0.3,1.4,0.4,2.2,0.4c0.9,0,1.6-0.2,2.1-0.5c0.6-0.4,1-0.9,1.4-1.7  l-11.1-26.3h9.4l6.4,15.9l6.4-15.9H398.5z"></path></g><g>	<path class="st0" d="M275.5,2.9c0.9,0.4,1.6,1,2.1,1.7s0.7,1.6,0.7,2.7c0,1-0.2,1.9-0.7,2.7c-0.5,0.8-1.2,1.3-2.1,1.7  c-0.9,0.4-2,0.6-3.2,0.6h-3.2v4.1h-2.6V2.3h5.8C273.5,2.3,274.6,2.5,275.5,2.9z M274.8,9.3c0.6-0.5,0.9-1.2,0.9-2.1  s-0.3-1.6-0.9-2.1s-1.5-0.7-2.6-0.7h-3.1v5.6h3.1C273.3,10.1,274.2,9.8,274.8,9.3z"></path>	<path class="st0" d="M288.3,6.6c0.8,0.8,1.3,1.9,1.3,3.4v6.3h-2.4V15c-0.3,0.5-0.7,0.8-1.3,1.1c-0.6,0.2-1.3,0.4-2.1,0.4  s-1.5-0.1-2.1-0.4c-0.6-0.3-1.1-0.7-1.4-1.1c-0.3-0.5-0.5-1-0.5-1.7c0-1,0.4-1.7,1.1-2.3c0.7-0.6,1.8-0.9,3.4-0.9h2.8V9.9  c0-0.8-0.2-1.3-0.7-1.7c-0.4-0.4-1.1-0.6-2-0.6c-0.6,0-1.2,0.1-1.8,0.3c-0.6,0.2-1.1,0.4-1.5,0.8l-1-1.8c0.6-0.4,1.2-0.8,2-1  c0.8-0.2,1.6-0.3,2.5-0.3C286.2,5.5,287.4,5.9,288.3,6.6z M286,14.2c0.5-0.3,0.8-0.7,1-1.2v-1.2h-2.6c-1.4,0-2.2,0.5-2.2,1.4  c0,0.5,0.2,0.8,0.5,1.1c0.4,0.3,0.9,0.4,1.5,0.4C284.9,14.6,285.5,14.5,286,14.2z"></path>	<path class="st0" d="M303.5,5.6v9.1c0,3.8-1.9,5.7-5.8,5.7c-1,0-2-0.1-2.9-0.4c-0.9-0.3-1.7-0.6-2.3-1.1l1.1-1.9  c0.5,0.4,1.1,0.7,1.8,0.9c0.7,0.2,1.4,0.4,2.2,0.4c1.2,0,2-0.3,2.6-0.8c0.5-0.5,0.8-1.4,0.8-2.5v-0.6c-0.4,0.5-1,0.8-1.6,1.1  c-0.6,0.2-1.3,0.4-2,0.4c-1,0-1.9-0.2-2.8-0.7c-0.8-0.4-1.5-1-1.9-1.8c-0.5-0.8-0.7-1.7-0.7-2.7c0-1,0.2-1.9,0.7-2.7  c0.5-0.8,1.1-1.4,1.9-1.8c0.8-0.4,1.7-0.6,2.8-0.6c0.8,0,1.5,0.1,2.1,0.4c0.6,0.3,1.2,0.6,1.6,1.2V5.6H303.5z M300.1,12.9  c0.6-0.6,0.9-1.3,0.9-2.2c0-0.9-0.3-1.6-0.9-2.2c-0.6-0.6-1.4-0.8-2.3-0.8c-1,0-1.8,0.3-2.4,0.8c-0.6,0.6-0.9,1.3-0.9,2.2  c0,0.9,0.3,1.7,0.9,2.2c0.6,0.6,1.4,0.9,2.4,0.9C298.7,13.7,299.5,13.4,300.1,12.9z"></path>	<path class="st0" d="M316.8,11.8h-8.4c0.1,0.8,0.5,1.4,1.2,1.9c0.6,0.5,1.4,0.7,2.3,0.7c1.2,0,2.1-0.4,2.9-1.2l1.3,1.5  c-0.5,0.6-1.1,1-1.8,1.3c-0.7,0.3-1.6,0.4-2.5,0.4c-1.2,0-2.2-0.2-3.1-0.7c-0.9-0.5-1.6-1.1-2.1-2c-0.5-0.8-0.7-1.8-0.7-2.8  c0-1,0.2-2,0.7-2.8c0.5-0.8,1.1-1.5,2-2c0.8-0.5,1.8-0.7,2.9-0.7c1,0,2,0.2,2.8,0.7c0.8,0.5,1.5,1.1,1.9,1.9  c0.5,0.8,0.7,1.8,0.7,2.9C316.8,11.2,316.8,11.5,316.8,11.8z M309.4,8.2c-0.6,0.5-0.9,1.1-1,1.9h6.1c-0.1-0.8-0.4-1.4-1-1.9  c-0.5-0.5-1.2-0.7-2-0.7C310.6,7.5,309.9,7.7,309.4,8.2z"></path>	<path class="st0" d="M336.9,10.3c0.5,0.6,0.7,1.3,0.7,2.2c0,1.2-0.5,2.2-1.4,2.8c-0.9,0.7-2.3,1-4.1,1h-7V2.3h6.6  c1.7,0,2.9,0.3,3.8,1c0.9,0.6,1.3,1.5,1.3,2.7c0,0.7-0.2,1.3-0.5,1.8c-0.3,0.5-0.8,1-1.3,1.2C335.8,9.3,336.4,9.7,336.9,10.3z   M327.7,4.3v3.9h3.7c0.9,0,1.6-0.2,2.1-0.5c0.5-0.3,0.7-0.8,0.7-1.4c0-0.6-0.2-1.1-0.7-1.5c-0.5-0.3-1.2-0.5-2.1-0.5H327.7z   M334.9,12.3c0-1.4-1-2-3-2h-4.2v4.1h4.2C333.9,14.3,334.9,13.6,334.9,12.3z"></path>	<path class="st0" d="M350.5,5.6v10.7h-2.4V15c-0.4,0.5-0.9,0.9-1.5,1.1c-0.6,0.3-1.3,0.4-1.9,0.4c-1.4,0-2.6-0.4-3.4-1.2  c-0.8-0.8-1.2-2-1.2-3.5V5.6h2.5v5.8c0,1,0.2,1.7,0.7,2.2s1.1,0.7,1.9,0.7c0.9,0,1.6-0.3,2.1-0.8c0.5-0.6,0.8-1.4,0.8-2.4V5.6  H350.5z"></path>	<path class="st0" d="M353.9,3.4c-0.3-0.3-0.5-0.6-0.5-1.1s0.2-0.8,0.5-1.1c0.3-0.3,0.7-0.4,1.1-0.4s0.8,0.1,1.1,0.4  c0.3,0.3,0.5,0.6,0.5,1c0,0.4-0.2,0.8-0.5,1.1c-0.3,0.3-0.7,0.5-1.2,0.5C354.6,3.8,354.2,3.7,353.9,3.4z M353.8,5.6h2.5v10.7h-2.5  V5.6z"></path>	<path class="st0" d="M359.6,1.4h2.5v14.9h-2.5V1.4z"></path>	<path class="st0" d="M375.9,1.4v14.9h-2.4v-1.4c-0.4,0.5-0.9,0.9-1.5,1.1c-0.6,0.3-1.3,0.4-2,0.4c-1,0-2-0.2-2.8-0.7  c-0.8-0.5-1.5-1.1-1.9-1.9c-0.5-0.8-0.7-1.8-0.7-2.9s0.2-2,0.7-2.9c0.5-0.8,1.1-1.5,1.9-1.9c0.8-0.5,1.8-0.7,2.8-0.7  c0.7,0,1.4,0.1,1.9,0.4c0.6,0.2,1.1,0.6,1.5,1.1V1.4H375.9z M371.8,13.9c0.5-0.3,0.9-0.7,1.1-1.2c0.3-0.5,0.4-1.1,0.4-1.8  c0-0.7-0.1-1.3-0.4-1.8s-0.7-0.9-1.1-1.2c-0.5-0.3-1-0.4-1.6-0.4c-0.6,0-1.1,0.1-1.6,0.4c-0.5,0.3-0.9,0.7-1.1,1.2S367,10.3,367,11  c0,0.7,0.1,1.3,0.4,1.8c0.3,0.5,0.7,0.9,1.1,1.2c0.5,0.3,1,0.4,1.6,0.4C370.8,14.3,371.4,14.2,371.8,13.9z"></path>	<path class="st0" d="M389.2,11.8h-8.4c0.1,0.8,0.5,1.4,1.2,1.9c0.6,0.5,1.4,0.7,2.3,0.7c1.2,0,2.1-0.4,2.9-1.2l1.3,1.5  c-0.5,0.6-1.1,1-1.8,1.3c-0.7,0.3-1.6,0.4-2.5,0.4c-1.2,0-2.2-0.2-3.1-0.7c-0.9-0.5-1.6-1.1-2.1-2c-0.5-0.8-0.7-1.8-0.7-2.8  c0-1,0.2-2,0.7-2.8c0.5-0.8,1.1-1.5,2-2c0.8-0.5,1.8-0.7,2.9-0.7c1,0,2,0.2,2.8,0.7c0.8,0.5,1.5,1.1,1.9,1.9  c0.5,0.8,0.7,1.8,0.7,2.9C389.3,11.2,389.2,11.5,389.2,11.8z M381.8,8.2c-0.6,0.5-0.9,1.1-1,1.9h6.1c-0.1-0.8-0.4-1.4-1-1.9  c-0.5-0.5-1.2-0.7-2-0.7C383,7.5,382.3,7.7,381.8,8.2z"></path>	<path class="st0" d="M397.9,5.5v2.4c-0.2,0-0.4-0.1-0.6-0.1c-1,0-1.7,0.3-2.3,0.9c-0.5,0.6-0.8,1.4-0.8,2.5v5.2h-2.5V5.6h2.4v1.6  C394.8,6.1,396,5.5,397.9,5.5z"></path></g></svg>