<svg xmlns="http://www.w3.org/2000/svg" xmlns:xlink="http://www.w3.org/1999/xlink" id="Layer_1" x="0px" y="0px" viewBox="0 0 300 300" style="enable-background:new 0 0 300 300;" xml:space="preserve"><g>	<path d="M150,4.5C69.8,4.5,4.5,69.8,4.5,150S69.8,295.5,150,295.5S295.5,230.2,295.5,150S230.2,4.5,150,4.5z M150,284.5  c-74.2,0-134.5-60.3-134.5-134.5S75.8,15.5,150,15.5S284.5,75.8,284.5,150S224.2,284.5,150,284.5z"></path>	<path d="M133.8,186.8c-4.3-6-6.5-13.1-6.5-20.5v-61.7c0-3-2.5-5.5-5.5-5.5s-5.5,2.5-5.5,5.5v61.7c0,9.7,3,18.9,8.6,26.8l4.1,5.8  c3.9,5.5,6,12.1,6,18.9v46.3c0,3,2.5,5.5,5.5,5.5s5.5-2.5,5.5-5.5v-46.3c0-9.1-2.8-17.8-8.1-25.2L133.8,186.8z"></path>	<path d="M183.7,104.6c0-3-2.5-5.5-5.5-5.5s-5.5,2.5-5.5,5.5v61.7c0,7.4-2.3,14.4-6.5,20.5l-4.1,5.8c-5.3,7.4-8.1,16.1-8.1,25.2  v46.3c0,3,2.5,5.5,5.5,5.5s5.5-2.5,5.5-5.5v-46.3c0-6.8,2.1-13.3,6-18.9l4.1-5.8c5.6-7.9,8.6-17.2,8.6-26.8V104.6z"></path>	<path d="M141.1,99.1c-3,0-5.5,2.5-5.5,5.5v63.8c0,3,2.5,5.5,5.5,5.5s5.5-2.5,5.5-5.5v-63.8C146.6,101.6,144.1,99.1,141.1,99.1z"></path>	<path d="M158.9,173.9c3,0,5.5-2.5,5.5-5.5v-63.8c0-3-2.5-5.5-5.5-5.5s-5.5,2.5-5.5,5.5v63.8C153.4,171.5,155.9,173.9,158.9,173.9z"></path>	<path d="M150,40.5C89.6,40.5,40.5,89.6,40.5,150c0,46.6,29.5,88.1,73.5,103.4c2.9,1,6-0.5,7-3.4c0.5-1.4,0.4-2.9-0.2-4.2  c-0.6-1.3-1.8-2.3-3.1-2.8c-39.6-13.8-66.1-51.1-66.1-93.1c0-54.3,44.2-98.5,98.5-98.5c54.3,0,98.5,44.2,98.5,98.5  c0,41.9-26.6,79.3-66.1,93.1c-1.4,0.5-2.5,1.5-3.1,2.8c-0.6,1.3-0.7,2.8-0.2,4.2c0.8,2.2,2.9,3.7,5.2,3.7c0.6,0,1.2-0.1,1.8-0.3  c44-15.3,73.5-56.9,73.5-103.4C259.5,89.6,210.4,40.5,150,40.5z"></path></g></svg>