<svg xmlns="http://www.w3.org/2000/svg" xmlns:xlink="http://www.w3.org/1999/xlink" id="Layer_1" x="0px" y="0px" viewBox="0 0 84 42" style="enable-background:new 0 0 84 42;" xml:space="preserve">
<style type="text/css">
	.st0{fill:#11181C;}
	.st1{fill:#F0C000;}
</style>
<g>
	<path class="st0" d="M9.6,16.7c-0.4,0.6-0.9,1.1-1.6,1.5c-0.7,0.4-1.6,0.6-2.6,0.6c-1,0-1.9-0.2-2.7-0.5c-0.8-0.3-1.4-0.8-1.9-1.5   c-0.5-0.6-0.7-1.4-0.8-2.2h3c0.1,0.6,0.3,1.1,0.7,1.4s0.9,0.6,1.6,0.6c0.6,0,1-0.2,1.4-0.5c0.3-0.3,0.5-0.7,0.5-1.2   c0-0.4-0.1-0.8-0.4-1.1c-0.3-0.3-0.6-0.5-1-0.7c-0.4-0.2-0.9-0.4-1.6-0.6c-0.9-0.3-1.6-0.6-2.2-0.9s-1-0.7-1.4-1.2   C0.2,9.8,0,9,0,8.2C0,7,0.4,6,1.3,5.3c0.9-0.7,2-1,3.5-1c1.5,0,2.7,0.4,3.6,1.1C9.2,6,9.7,7,9.9,8.2h-3C6.7,7.7,6.5,7.3,6.2,7   S5.4,6.5,4.8,6.5c-0.5,0-0.9,0.1-1.3,0.4C3.2,7.2,3,7.5,3,8.1c0,0.4,0.1,0.8,0.4,1C3.6,9.4,4,9.6,4.3,9.8s0.9,0.4,1.6,0.6   c0.9,0.3,1.6,0.6,2.2,0.9c0.6,0.3,1,0.7,1.4,1.3s0.6,1.3,0.6,2.2C10.1,15.4,10,16.1,9.6,16.7z"></path>
	<path class="st0" d="M22.5,13.6h-8.1c0,1,0.3,1.7,0.8,2.2s1.1,0.7,1.8,0.7c0.7,0,1.2-0.2,1.6-0.5c0.4-0.3,0.7-0.8,0.8-1.3h3   c-0.1,0.8-0.5,1.5-0.9,2.1s-1.1,1.1-1.9,1.4c-0.8,0.3-1.6,0.5-2.5,0.5c-1.1,0-2-0.2-2.9-0.7c-0.8-0.5-1.5-1.1-2-2   c-0.5-0.9-0.7-1.9-0.7-3s0.2-2.2,0.7-3c0.5-0.9,1.1-1.5,2-2c0.8-0.5,1.8-0.7,2.9-0.7c1.1,0,2.1,0.2,2.9,0.7   c0.8,0.5,1.5,1.1,1.9,1.9c0.4,0.8,0.7,1.7,0.7,2.7C22.6,12.9,22.6,13.2,22.5,13.6z M19.1,10.3c-0.5-0.5-1.1-0.7-1.9-0.7   c-0.8,0-1.4,0.2-1.9,0.7s-0.8,1.2-0.9,2.1h5.4C19.8,11.4,19.6,10.7,19.1,10.3z"></path>
	<path class="st0" d="M29.5,15.7l2.8-8.3h3l-4.1,11.1h-3.4L23.6,7.5h3L29.5,15.7z"></path>
	<path class="st0" d="M47.1,13.6H39c0,1,0.3,1.7,0.8,2.2s1.1,0.7,1.8,0.7c0.7,0,1.2-0.2,1.6-0.5c0.4-0.3,0.7-0.8,0.8-1.3h3   c-0.1,0.8-0.5,1.5-0.9,2.1s-1.1,1.1-1.9,1.4c-0.8,0.3-1.6,0.5-2.5,0.5c-1.1,0-2-0.2-2.9-0.7c-0.8-0.5-1.5-1.1-2-2   c-0.5-0.9-0.7-1.9-0.7-3s0.2-2.2,0.7-3c0.5-0.9,1.1-1.5,2-2c0.8-0.5,1.8-0.7,2.9-0.7c1.1,0,2.1,0.2,2.9,0.7   c0.8,0.5,1.5,1.1,1.9,1.9c0.4,0.8,0.7,1.7,0.7,2.7C47.2,12.9,47.2,13.2,47.1,13.6z M43.7,10.3c-0.5-0.5-1.1-0.7-1.9-0.7   c-0.8,0-1.4,0.2-1.9,0.7s-0.8,1.2-0.9,2.1h5.4C44.4,11.4,44.2,10.7,43.7,10.3z"></path>
	<path class="st0" d="M58.9,8.6c0.8,0.8,1.1,2,1.1,3.5v6.4h-2.8v-6.1c0-0.9-0.2-1.6-0.7-2c-0.5-0.5-1.1-0.7-1.9-0.7   c-0.8,0-1.4,0.3-1.9,0.8s-0.7,1.3-0.7,2.2v5.9h-2.8V7.5h2.8v2.2C52.4,9,52.8,8.4,53.5,8s1.5-0.6,2.3-0.6   C57.1,7.3,58.1,7.7,58.9,8.6z"></path>
</g>
<g>
	<path class="st0" d="M6.6,28.2c0.7,0.6,1.1,1.3,1.3,2.2H6.4c-0.1-0.6-0.4-1-0.8-1.4c-0.4-0.3-1-0.5-1.6-0.5c-0.5,0-0.9,0.1-1.3,0.3   c-0.4,0.2-0.7,0.5-0.9,1c-0.2,0.4-0.4,1-0.4,1.7s0.1,1.2,0.4,1.7c0.2,0.4,0.5,0.8,0.9,1c0.4,0.2,0.8,0.3,1.3,0.3   c0.6,0,1.2-0.2,1.6-0.5c0.4-0.3,0.7-0.8,0.8-1.4h1.4c-0.2,0.9-0.6,1.7-1.3,2.2S5,35.7,4,35.7c-0.8,0-1.5-0.2-2.1-0.5   c-0.6-0.3-1.1-0.8-1.4-1.4S0,32.4,0,31.5s0.2-1.6,0.5-2.2c0.3-0.6,0.8-1.1,1.4-1.4c0.6-0.3,1.3-0.5,2.1-0.5   C5,27.4,5.9,27.6,6.6,28.2z"></path>
	<path class="st0" d="M15.3,27.9c0.6,0.3,1.1,0.8,1.4,1.4c0.3,0.6,0.5,1.4,0.5,2.2s-0.2,1.6-0.5,2.2c-0.3,0.6-0.8,1.1-1.4,1.4   c-0.6,0.3-1.3,0.5-2.1,0.5c-0.8,0-1.5-0.2-2.1-0.5c-0.6-0.3-1.1-0.8-1.5-1.4s-0.5-1.4-0.5-2.2s0.2-1.6,0.5-2.2   c0.4-0.6,0.8-1.1,1.5-1.4c0.6-0.3,1.3-0.5,2.1-0.5C14,27.4,14.7,27.5,15.3,27.9z M11.9,28.9c-0.4,0.2-0.7,0.5-1,1s-0.4,1-0.4,1.7   c0,0.6,0.1,1.2,0.4,1.6c0.3,0.4,0.6,0.8,1,1c0.4,0.2,0.9,0.3,1.3,0.3s0.9-0.1,1.3-0.3c0.4-0.2,0.7-0.5,1-1c0.3-0.4,0.4-1,0.4-1.6   c0-0.7-0.1-1.2-0.4-1.7c-0.3-0.4-0.6-0.8-1-1c-0.4-0.2-0.9-0.3-1.3-0.3S12.3,28.7,11.9,28.9z"></path>
	<path class="st0" d="M25.6,28.2c0.6,0.6,0.9,1.5,0.9,2.6v4.7h-1.3V31c0-0.8-0.2-1.4-0.6-1.9c-0.4-0.4-1-0.6-1.7-0.6   c-0.7,0-1.3,0.2-1.8,0.7s-0.7,1.2-0.7,2.1v4.3H19v-8.1h1.3v1.9c0.2-0.7,0.6-1.2,1.1-1.5c0.5-0.4,1.1-0.5,1.8-0.5   C24.3,27.3,25,27.6,25.6,28.2z"></path>
	<path class="st0" d="M33.3,28.1c0.6,0.5,0.9,1.1,1,1.9H33c-0.1-0.5-0.3-0.9-0.6-1.2s-0.8-0.5-1.4-0.5c-0.5,0-0.9,0.1-1.1,0.3   c-0.3,0.2-0.4,0.5-0.4,0.9c0,0.3,0.1,0.5,0.3,0.7c0.2,0.2,0.4,0.3,0.7,0.4c0.3,0.1,0.6,0.2,1.1,0.3c0.6,0.1,1.1,0.3,1.5,0.4   c0.4,0.1,0.7,0.4,0.9,0.7c0.3,0.3,0.4,0.7,0.4,1.3c0,0.7-0.2,1.2-0.7,1.6c-0.5,0.4-1.2,0.6-2,0.6c-1,0-1.8-0.2-2.4-0.7   c-0.6-0.5-1-1.1-1.1-1.9h1.3c0,0.5,0.3,0.9,0.6,1.2c0.4,0.3,0.9,0.5,1.5,0.5c0.5,0,0.8-0.1,1.1-0.4c0.3-0.2,0.4-0.5,0.4-0.9   c0-0.3-0.1-0.6-0.3-0.8c-0.2-0.2-0.4-0.3-0.7-0.4c-0.3-0.1-0.7-0.2-1.1-0.3c-0.6-0.1-1.1-0.3-1.4-0.4c-0.4-0.1-0.7-0.4-0.9-0.7   c-0.3-0.3-0.4-0.7-0.4-1.2c0-0.7,0.3-1.2,0.8-1.6c0.5-0.4,1.2-0.6,2.1-0.6C32,27.4,32.7,27.6,33.3,28.1z"></path>
	<path class="st0" d="M43.4,27.5v8.1H42v-1.9c-0.2,0.7-0.6,1.2-1.1,1.5c-0.5,0.3-1.1,0.5-1.8,0.5c-0.9,0-1.7-0.3-2.3-0.9   c-0.6-0.6-0.9-1.5-0.9-2.6v-4.7h1.3v4.6c0,0.8,0.2,1.4,0.6,1.9c0.4,0.4,1,0.7,1.7,0.7c0.7,0,1.3-0.2,1.8-0.7   c0.4-0.5,0.7-1.2,0.7-2.1v-4.3H43.4z"></path>
	<path class="st0" d="M46.9,24.6v10.9h-1.3V24.6H46.9z"></path>
	<path class="st0" d="M52.9,34.4v1.2h-1c-0.8,0-1.4-0.2-1.9-0.6s-0.6-1.1-0.6-2v-4.4h-1.2v-1.2h1.2v-2h1.4v2h2.1v1.2h-2.1V33   c0,0.5,0.1,0.9,0.3,1.1c0.2,0.2,0.5,0.3,1,0.3H52.9z"></path>
	<path class="st0" d="M54.5,24.5c0.2-0.2,0.4-0.2,0.7-0.2s0.5,0.1,0.7,0.2c0.2,0.2,0.3,0.4,0.3,0.6c0,0.2-0.1,0.4-0.3,0.6   c-0.2,0.2-0.4,0.2-0.7,0.2s-0.5-0.1-0.7-0.2c-0.2-0.2-0.3-0.4-0.3-0.6C54.3,24.8,54.4,24.6,54.5,24.5z M55.9,27.5v8.1h-1.3v-8.1   H55.9z"></path>
	<path class="st0" d="M64.6,28.2c0.6,0.6,0.9,1.5,0.9,2.6v4.7h-1.3V31c0-0.8-0.2-1.4-0.6-1.9c-0.4-0.4-1-0.6-1.7-0.6   c-0.7,0-1.3,0.2-1.8,0.7s-0.7,1.2-0.7,2.1v4.3H58v-8.1h1.3v1.9c0.2-0.7,0.6-1.2,1.1-1.5c0.5-0.4,1.1-0.5,1.8-0.5   C63.2,27.3,64,27.6,64.6,28.2z"></path>
	<path class="st0" d="M72.8,28c0.5,0.4,0.9,0.9,1.1,1.6v-2.1h1.3v8.2c0,0.7-0.2,1.4-0.5,2c-0.3,0.6-0.8,1-1.3,1.4   c-0.6,0.3-1.2,0.5-2,0.5c-1.1,0-2-0.3-2.7-0.8s-1.1-1.2-1.3-2.1h1.3c0.2,0.5,0.5,1,0.9,1.3c0.4,0.3,1,0.5,1.7,0.5   c0.7,0,1.3-0.2,1.8-0.7c0.5-0.5,0.7-1.1,0.7-2v-2.2c-0.2,0.7-0.6,1.2-1.1,1.6c-0.5,0.4-1.2,0.6-2,0.6c-0.7,0-1.4-0.2-1.9-0.5   c-0.6-0.3-1-0.8-1.3-1.4s-0.5-1.4-0.5-2.2s0.2-1.6,0.5-2.2c0.3-0.6,0.8-1.1,1.3-1.4c0.6-0.3,1.2-0.5,1.9-0.5   C71.6,27.4,72.3,27.6,72.8,28z M69.2,29.3c-0.5,0.5-0.7,1.3-0.7,2.2s0.2,1.7,0.7,2.2c0.5,0.5,1.2,0.8,2,0.8c0.5,0,1-0.1,1.4-0.4   c0.4-0.2,0.7-0.6,1-1c0.2-0.4,0.4-1,0.4-1.6c0-0.6-0.1-1.1-0.4-1.6c-0.2-0.5-0.6-0.8-1-1c-0.4-0.2-0.9-0.4-1.4-0.4   C70.4,28.6,69.7,28.8,69.2,29.3z"></path>
</g>
<circle class="st1" cx="80" cy="6" r="3"></circle>
<path class="st1" d="M71,7c-3.3,0-6,2.7-6,6s2.7,6,6,6s6-2.7,6-6S74.3,7,71,7z M71,16c-1.7,0-3-1.3-3-3s1.3-3,3-3s3,1.3,3,3  S72.7,16,71,16z"></path>
</svg>